<?xml version="1.0" encoding="UTF-8"?>
<svg id="Layer_2" data-name="Layer 2" xmlns="http://www.w3.org/2000/svg" viewBox="0 0 109.82 28.43">
  <defs>
    <style>
      .cls-1 {
        fill: #55519d;
      }
    </style>
  </defs>
  <g id="Layer_1-2" data-name="Layer 1">
    <g>
      <path class="cls-1" d="M70.81,21.47V7.59l4.62-1v1.8c.54-.76,1.18-1.31,1.92-1.65.74-.34,1.57-.51,2.49-.51,1.86,0,3.27.6,4.23,1.79.96,1.19,1.44,2.74,1.44,4.64v8.82h-4.59v-8.25c0-.94-.23-1.69-.69-2.27-.46-.57-1.15-.85-2.07-.85s-1.58.3-2.04.89c-.46.59-.69,1.33-.69,2.23v8.25h-4.62Z"/>
      <path class="cls-1" d="M99.08,21.83c-.86,0-1.66-.18-2.4-.52-.74-.35-1.33-.86-1.79-1.53s-.67-1.49-.67-2.45c0-1.1.29-1.99.87-2.69.58-.69,1.35-1.19,2.32-1.51.97-.32,2.04-.48,3.2-.48h3.36c0-.52-.09-.98-.27-1.38-.18-.4-.45-.71-.81-.94-.36-.23-.81-.35-1.35-.35s-1.07.12-1.53.36c-.46.24-.75.65-.87,1.23h-4.47c.08-1.1.45-2.04,1.11-2.83s1.5-1.4,2.54-1.85c1.03-.44,2.13-.66,3.32-.66,1.38,0,2.59.26,3.64.77,1.05.51,1.86,1.24,2.45,2.19.58.95.87,2.1.87,3.44v3.81c0,.44.06.78.19,1.02.13.24.48.36,1.04.36v3.66c-.96,0-1.76-.06-2.4-.18-.64-.12-1.18-.34-1.62-.67-.44-.33-.84-.81-1.2-1.46-.66.88-1.44,1.54-2.34,2-.9.45-1.96.67-3.18.67ZM100.7,18.29c.58,0,1.12-.12,1.61-.38.49-.25.88-.6,1.18-1.06.3-.46.45-.98.45-1.56v-.18h-2.85c-.4,0-.77.06-1.11.17-.34.11-.61.28-.81.51-.2.23-.3.55-.3.94,0,.58.19.99.57,1.22s.8.34,1.26.34Z"/>
      <path class="cls-1" d="M64.84,21.47l-.03-11.19,4.62-1.01.03,12.19h-4.62Z"/>
      <path class="cls-1" d="M48.73,21.47V7.59l4.62-1v1.8c.54-.76,1.18-1.31,1.92-1.65.74-.34,1.57-.51,2.49-.51,1.86,0,3.27.6,4.23,1.79.96,1.19,1.44,2.74,1.44,4.64v8.82h-4.59v-8.25c0-.94-.23-1.69-.69-2.27-.46-.57-1.15-.85-2.07-.85s-1.58.3-2.04.89c-.46.59-.69,1.33-.69,2.23v8.25h-4.62Z"/>
      <path class="cls-1" d="M86.32,21.47v-3.93h1.11c.46,0,.81-.1,1.05-.29s.36-.52.36-.97V7.59l4.62-1v9.63c0,1.2-.21,2.18-.61,2.96-.41.77-1.01,1.34-1.8,1.72s-1.76.57-2.92.57h-1.8Z"/>
      <path class="cls-1" d="M9.33,21.83c-.94,0-1.83-.19-2.67-.57-.84-.38-1.51-.97-2.01-1.77v1.98H0V1L4.65,0v8.6c.48-.78,1.14-1.37,2-1.77.85-.4,1.74-.6,2.69-.6,1.32,0,2.48.34,3.48,1.01,1,.67,1.78,1.59,2.35,2.76.57,1.17.85,2.5.85,4s-.27,2.76-.81,3.95-1.31,2.14-2.31,2.83c-1,.7-2.19,1.05-3.57,1.05ZM7.95,17.78c.66,0,1.24-.16,1.74-.48.5-.32.89-.77,1.17-1.33.28-.57.42-1.23.42-1.97,0-.82-.16-1.5-.46-2.05-.31-.55-.72-.96-1.21-1.25-.5-.28-1.05-.42-1.65-.42s-1.18.15-1.68.45c-.5.3-.9.73-1.2,1.29-.3.56-.45,1.23-.45,2.01,0,.72.14,1.36.42,1.94.28.57.67,1.02,1.19,1.33.51.32,1.08.48,1.72.48Z"/>
      <path class="cls-1" d="M22.59,21.83c-1.24,0-2.29-.27-3.14-.82s-1.49-1.31-1.92-2.28c-.43-.97-.65-2.07-.65-3.31v-7.82l4.59-1v8.25c0,.92.23,1.67.69,2.25.46.58,1.15.87,2.07.87s1.61-.29,2.07-.87.69-1.33.69-2.25v-7.25l4.62-1v14.88h-4.62v-1.86c-.52.74-1.16,1.29-1.92,1.67-.76.37-1.59.55-2.49.55Z"/>
      <path class="cls-1" d="M39.75,28.43c-1.36,0-2.58-.15-3.66-.45-1.08-.3-1.94-.79-2.56-1.45-.63-.67-.94-1.55-.94-2.62,0-.7.15-1.31.45-1.81.3-.51.76-.96,1.38-1.34-.52-.3-.91-.68-1.17-1.14s-.39-.99-.39-1.59c0-1.32.6-2.32,1.8-3-.44-.46-.77-.97-.99-1.54-.22-.57-.33-1.19-.33-1.84,0-1.1.26-2.06.79-2.87.53-.81,1.26-1.43,2.21-1.88.94-.44,2.01-.66,3.21-.66.9,0,1.71.12,2.43.36h5.78v2.6l-2.33.49c.1.28.18.58.25.92.07.33.1.67.1,1.04,0,1.08-.27,2.02-.82,2.83-.55.81-1.3,1.44-2.24,1.89-.94.45-2,.68-3.18.68-.44,0-.85-.03-1.25-.1-.39-.07-.77-.17-1.12-.31-.34.16-.51.42-.51.78,0,.64.52.96,1.56.96h3.06c1.2,0,2.24.17,3.12.51.88.34,1.56.86,2.04,1.56s.72,1.61.72,2.73c0,1.2-.35,2.19-1.04,2.97-.69.78-1.6,1.36-2.73,1.74-1.13.38-2.35.57-3.65.57ZM39.87,25.04c.82,0,1.53-.13,2.13-.39.6-.26.9-.67.9-1.23,0-1.02-.7-1.53-2.1-1.53h-1.86c-.68,0-1.2.12-1.56.38s-.54.63-.54,1.16c0,.4.14.72.42.96.28.24.65.41,1.11.51.46.1.96.15,1.5.15ZM39.54,13.67c.66,0,1.2-.19,1.62-.57.42-.38.63-.87.63-1.47s-.21-1.06-.63-1.46c-.42-.39-.96-.58-1.62-.58s-1.22.19-1.62.58c-.4.39-.6.88-.6,1.46s.2,1.09.6,1.47c.4.38.94.57,1.62.57Z"/>
      <path class="cls-1" d="M64.84,8.88l-.03-2.29,4.62-1,.03,2.29-4.62,1Z"/>
    </g>
  </g>
</svg>